<svg xmlns="http://www.w3.org/2000/svg" viewBox="0 0 512 512">
    <rect width="512" height="512" rx="112" fill="#020617"/>
    <rect width="512" height="512" rx="112" fill="url(#grad)"/>
    <defs>
        <linearGradient id="grad" x1="0%" y1="0%" x2="100%" y2="100%">
            <stop offset="0%" style="stop-color:#1e3a5f"/>
            <stop offset="100%" style="stop-color:#020617"/>
        </linearGradient>
    </defs>
    <!-- Train / map icon -->
    <g transform="translate(256,256)" fill="none" stroke="#3b82f6" stroke-width="28" stroke-linecap="round" stroke-linejoin="round">
        <path d="M-90 80l-54.5-27.2A10 10 0 01-150 43.8V-44.4a10 10 0 0114.5-8.9L-90 -30m0 110l60-30m-60 30V-30m60 100l45.5 22.8A10 10 0 00210 183.8V84.4a10 10 0 00-5.5-8.9L150 40m0 130V40m0 0L-90 -30"/>
    </g>
</svg>
